<svg width="80" height="80" viewBox="0 0 80 80" fill="none" xmlns="http://www.w3.org/2000/svg">
<rect width="80" height="80" transform="matrix(-1 0 0 1 80 0)" fill="#EB5757"/>
<path d="M34.8998 36.8185L41.7833 29.9395C42.0689 29.6813 42.4429 29.5427 42.8278 29.5526C43.2127 29.5625 43.5791 29.72 43.8511 29.9926C44.1231 30.2652 44.2798 30.6319 44.2889 31.0168C44.298 31.4017 44.1587 31.7754 43.8998 32.0605L37.0208 38.9395C36.7396 39.2208 36.5816 39.6022 36.5816 40C36.5816 40.3977 36.7396 40.7792 37.0208 41.0605L43.8998 47.9395C44.1811 48.221 44.339 48.6026 44.3389 49.0005C44.3387 49.3984 44.1805 49.78 43.8991 50.0612C43.6176 50.3425 43.2359 50.5004 42.838 50.5003C42.4401 50.5002 42.0586 50.342 41.7773 50.0605L34.8998 43.1815C34.0562 42.3376 33.5823 41.1932 33.5823 40C33.5823 38.8068 34.0562 37.6624 34.8998 36.8185Z" fill="white"/>
</svg>
