<svg width="80" height="80" viewBox="0 0 80 80" fill="none" xmlns="http://www.w3.org/2000/svg">
<rect width="80" height="80" fill="#EB5757"/>
<path d="M45.1002 36.8185L38.2167 29.9395C37.9311 29.6813 37.5571 29.5427 37.1722 29.5526C36.7873 29.5625 36.4209 29.72 36.1489 29.9926C35.8769 30.2652 35.7202 30.6319 35.7111 31.0168C35.702 31.4017 35.8413 31.7754 36.1002 32.0605L42.9792 38.9395C43.2604 39.2208 43.4184 39.6022 43.4184 40C43.4184 40.3977 43.2604 40.7792 42.9792 41.0605L36.1002 47.9395C35.8189 48.221 35.661 48.6026 35.6611 49.0005C35.6613 49.3984 35.8195 49.78 36.1009 50.0612C36.3824 50.3425 36.7641 50.5004 37.162 50.5003C37.5599 50.5002 37.9414 50.342 38.2227 50.0605L45.1002 43.1815C45.9438 42.3376 46.4177 41.1932 46.4177 40C46.4177 38.8068 45.9438 37.6624 45.1002 36.8185Z" fill="white"/>
</svg>
