<svg width="120" height="75" viewBox="0 0 120 75" fill="none" xmlns="http://www.w3.org/2000/svg">
<rect width="75" height="75" transform="matrix(-1 0 0 1 75 0)" fill="#041C4A"/>
<path d="M21.2929 37.7071C20.9024 37.3166 20.9024 36.6834 21.2929 36.2929L27.6569 29.9289C28.0474 29.5384 28.6805 29.5384 29.0711 29.9289C29.4616 30.3195 29.4616 30.9526 29.0711 31.3432L23.4142 37L29.0711 42.6569C29.4616 43.0474 29.4616 43.6806 29.0711 44.0711C28.6805 44.4616 28.0474 44.4616 27.6569 44.0711L21.2929 37.7071ZM120 38L22 38L22 36L120 36L120 38Z" fill="#FF6969"/>
</svg>
